<?xml version="1.0" encoding="UTF-8"?>
<!DOCTYPE svg PUBLIC "-//W3C//DTD SVG 1.1//EN" "http://www.w3.org/Graphics/SVG/1.1/DTD/svg11.dtd">
<!-- Creator: CorelDRAW X7 -->
<svg xmlns="http://www.w3.org/2000/svg" xml:space="preserve" width="254mm" height="254mm" version="1.1" style="shape-rendering:geometricPrecision; text-rendering:geometricPrecision; image-rendering:optimizeQuality; fill-rule:evenodd; clip-rule:evenodd"
viewBox="0 0 25400 25400"
 xmlns:xlink="http://www.w3.org/1999/xlink">
 <defs>
  <style type="text/css">
   <![CDATA[
    .fil0 {fill:none}
    .fil1 {fill:#339966}
    .fil2 {fill:#CC3300}
    .fil3 {fill:#339966;fill-rule:nonzero}
   ]]>
  </style>
 </defs>
 <g id="Layer_x0020_1">
  <metadata id="CorelCorpID_0Corel-Layer"/>
  <rect class="fil0" width="25400" height="25400"/>
  <g id="_2189179838288">
   <g>
    <path class="fil1" d="M9582 19068c-828,-649 -1575,-1373 -2234,-2179 734,-140 1486,-244 2234,-318l0 2497zm-5076 -8067c-357,-1496 -545,-3148 -548,-4971 1473,-893 2975,-1553 4492,-1982 -854,986 -1372,2273 -1372,3680 0,943 236,1847 661,2645 -1096,150 -2182,357 -3233,628zm12444 -6953c1517,429 3019,1089 4492,1982 -3,1823 -191,3475 -548,4971 -1051,-271 -2137,-477 -3233,-628 426,-798 661,-1702 661,-2645 0,-1407 -517,-2694 -1372,-3680zm1102 12841c-659,806 -1406,1530 -2234,2179l0 -2497c748,74 1500,178 2234,318z"/>
    <path class="fil2" d="M12700 3471c2351,0 4257,1906 4257,4257 0,923 -294,1777 -793,2475 -1164,-107 -2328,-155 -3464,-155 -1136,0 -2300,48 -3464,155 -499,-698 -793,-1552 -793,-2475 0,-2351 1906,-4257 4257,-4257zm1753 12998l0 3511 -1753 1012 -1752 -1012 0 -3511c597,-31 1185,-45 1752,-45 567,0 1155,14 1753,45zm-1753 -11632c591,0 1071,479 1071,1070 0,591 -480,1071 -1071,1071 -591,0 -1070,-480 -1070,-1071 0,-591 479,-1070 1070,-1070z"/>
   </g>
   <path class="fil3" d="M6125 19070l-152 76 -366 -736 980 -487 356 715 -152 76 -266 -533 -255 126 236 474 -150 74 -236 -473 -270 135 275 553zm1928 913l-783 765 -117 -120 109 -950 -531 518 -141 -144 784 -765 116 120 -108 950 530 -518 141 144zm787 854l-306 -196 93 -145 782 501 -93 145 -305 -196 -498 777 -171 -109 498 -777zm1724 1635l-54 162 -778 -263 350 -1037 758 255 -55 162 -565 -191 -91 270 501 169 -53 159 -501 -170 -97 286 585 198zm1726 456l-199 -337c-9,1 -23,0 -42,-1l-247 -19 -24 318 -203 -15 84 -1092 449 34c94,7 176,29 243,66 68,36 119,85 152,146 33,61 46,132 40,212 -6,82 -32,151 -76,207 -45,57 -106,96 -183,120l224 378 -218 -17zm49 -704c5,-69 -14,-125 -57,-166 -43,-41 -108,-64 -197,-71l-237 -18 -33 435 237 18c89,7 157,-7 206,-42 48,-34 75,-86 81,-156zm1496 -479c94,-16 178,-15 253,4 74,19 135,53 182,104 47,52 78,117 92,196 13,78 7,149 -20,214 -27,64 -72,118 -136,161 -64,43 -143,72 -236,89l-244 42 54 311 -200 36 -188 -1079 443 -78zm96 600c87,-16 150,-46 189,-90 39,-45 52,-102 40,-171 -12,-69 -44,-118 -96,-147 -51,-29 -121,-36 -208,-21l-234 41 74 429 235 -41zm2227 -208l-336 -200c-9,5 -21,11 -38,19l-225 102 131 290 -185 84 -451 -997 410 -186c86,-39 168,-59 245,-60 77,0 145,19 203,56 59,38 104,94 137,167 34,75 45,148 33,218 -12,71 -46,135 -103,193l378 224 -199 90zm-295 -641c-29,-63 -72,-103 -130,-118 -57,-16 -126,-5 -207,32l-216 98 180 397 216 -98c81,-36 134,-81 161,-135 26,-54 24,-112 -4,-176zm759 -913l165 -119 640 889 -165 118 -640 -888zm1916 -235c-55,63 -118,117 -187,161 -70,44 -135,70 -195,78l-73 -156c56,-11 114,-34 174,-68 59,-35 111,-76 154,-126 53,-62 83,-116 90,-163 7,-48 -6,-85 -39,-114 -23,-20 -50,-28 -80,-25 -30,4 -61,15 -92,33 -31,19 -72,45 -122,81 -70,50 -129,88 -178,114 -48,26 -101,39 -157,39 -56,0 -111,-23 -166,-71 -45,-39 -76,-88 -92,-145 -16,-57 -13,-120 8,-190 22,-69 64,-140 127,-212 44,-50 93,-95 148,-132 55,-38 110,-65 164,-79l77 152c-52,17 -101,41 -147,71 -45,30 -84,63 -116,100 -52,61 -81,115 -86,162 -6,47 9,86 42,115 24,21 51,29 80,25 30,-4 61,-15 92,-34 31,-18 72,-45 122,-80 67,-49 126,-87 175,-113 50,-26 102,-39 158,-40 56,0 111,23 164,69 46,40 76,88 92,145 15,57 12,120 -10,190 -21,69 -64,140 -127,213zm1117 -2025l152 78 -377 730 -973 -503 367 -710 151 78 -273 529 253 131 242 -470 149 77 -243 470 269 139 283 -549z"/>
   <path class="fil2" d="M3958 11860c2414,-706 5458,-1130 8742,-1130 3284,0 6328,424 8742,1130l0 5286c-188,-69 -391,-143 -609,-221 -2043,-731 -4916,-1184 -8133,-1184 -3217,0 -6090,453 -8133,1184 -218,78 -421,152 -609,221l0 -5286zm3837 3218l-9 -1563 -746 1410 -365 67 -743 -1095 0 1522 -759 139 0 -2952 676 -124 1021 1517 995 -1886 676 -124 9 2950 -755 139zm2483 -1326l-311 353 0 738 -825 52 0 -2952 825 -52 0 1227 1140 -1300 918 -59 -1204 1384 1267 1564 -968 62 -842 -1017zm3005 1051c-239,-2 -471,-33 -696,-94 -225,-62 -407,-142 -548,-242l274 -613c132,89 285,160 460,215 174,55 346,83 514,85 321,3 481,-76 481,-236 0,-84 -46,-147 -137,-189 -92,-41 -238,-86 -441,-132 -222,-50 -407,-103 -556,-159 -149,-57 -277,-146 -384,-267 -107,-122 -160,-286 -160,-491 0,-180 49,-342 147,-486 99,-144 245,-257 441,-339 195,-83 435,-123 719,-120 194,1 385,25 573,70 189,45 354,111 498,196l-257 618c-282,-154 -554,-233 -818,-235 -166,-2 -287,22 -363,70 -76,49 -114,113 -114,191 0,79 45,138 135,179 90,40 235,82 434,126 225,50 412,103 559,159 148,56 276,144 384,265 108,120 162,283 162,488 0,177 -49,337 -148,480 -98,142 -245,255 -442,339 -197,84 -436,125 -717,122zm4670 -2661l-1259 2824 -818 -83 -1254 -3080 898 92 797 2003 814 -1840 822 84zm1183 3284c-234,-48 -461,-124 -681,-229 -221,-104 -400,-220 -537,-347l268 -560c130,114 280,215 450,304 171,88 339,149 504,183 314,65 471,17 471,-143 0,-84 -45,-156 -134,-215 -90,-59 -233,-132 -432,-218 -217,-92 -399,-181 -545,-266 -146,-85 -271,-198 -376,-341 -104,-142 -157,-316 -157,-521 0,-180 48,-333 145,-458 96,-124 240,-209 431,-254 192,-45 427,-39 705,18 190,39 377,100 561,181 185,82 347,179 488,292l-252 568c-276,-208 -543,-339 -801,-392 -163,-34 -281,-34 -356,0 -74,34 -111,91 -111,169 0,79 44,147 132,204 88,58 230,128 425,210 221,94 403,182 548,267 144,85 270,197 376,339 106,141 159,314 159,520 0,177 -49,327 -145,451 -96,123 -241,208 -434,254 -192,46 -426,41 -702,-16z"/>
  </g>
 </g>
</svg>
