<?xml version="1.0" encoding="UTF-8"?>
<!DOCTYPE svg PUBLIC "-//W3C//DTD SVG 1.1//EN" "http://www.w3.org/Graphics/SVG/1.1/DTD/svg11.dtd">
<!-- Creator: CorelDRAW X7 -->
<svg xmlns="http://www.w3.org/2000/svg" xml:space="preserve" width="254mm" height="254mm" version="1.1" style="shape-rendering:geometricPrecision; text-rendering:geometricPrecision; image-rendering:optimizeQuality; fill-rule:evenodd; clip-rule:evenodd"
viewBox="0 0 25400 25400"
 xmlns:xlink="http://www.w3.org/1999/xlink">
 <defs>
  <style type="text/css">
   <![CDATA[
    .fil0 {fill:none}
    .fil1 {fill:black}
   ]]>
  </style>
 </defs>
 <g id="Layer_x0020_1">
  <metadata id="CorelCorpID_0Corel-Layer"/>
  <rect class="fil0" width="25400" height="25400"/>
  <path class="fil1" d="M4316 15373c-1393,-1090 -2196,-2725 -2199,-5098 575,-349 1163,-607 1756,-775 -334,386 -537,889 -537,1439 0,744 375,1427 980,1830l0 2604zm2880 -5873c593,168 1181,426 1757,775 -4,2373 -807,4008 -2199,5098l0 -2604c604,-403 979,-1086 979,-1830 0,-550 -203,-1053 -537,-1439zm5123 3351l-7 -1350 -655 1099 -320 0 -651 -1062 0 1313 -666 0 0 -2546 593 0 895 1469 873 -1469 593 0 7 2546 -662 0zm2154 -924l-269 287 0 637 -713 0 0 -2546 713 0 0 1058 986 -1058 793 0 -1041 1127 1095 1419 -836 0 -728 -924zm2594 975c-206,0 -406,-25 -600,-76 -194,-51 -352,-119 -473,-204l236 -531c114,75 246,136 397,182 150,46 298,69 444,69 276,0 414,-69 414,-208 0,-72 -39,-126 -118,-161 -79,-36 -206,-73 -380,-111 -192,-42 -352,-86 -480,-133 -129,-48 -239,-123 -331,-228 -93,-104 -139,-245 -139,-422 0,-155 43,-295 128,-420 85,-125 211,-224 380,-296 168,-73 375,-109 620,-109 167,0 332,18 495,56 162,38 305,93 429,166l-222 534c-242,-131 -478,-196 -706,-196 -143,0 -247,21 -312,64 -66,42 -99,97 -99,165 0,68 39,119 117,153 77,34 202,69 375,105 194,42 354,86 482,133 127,47 237,123 331,226 93,103 140,243 140,420 0,153 -43,291 -128,415 -85,123 -212,222 -382,296 -169,74 -376,111 -618,111zm4042 -2597l-1092 2546 -709 0 -1088 -2546 779 0 691 1658 706 -1658 713 0zm1044 2597c-206,0 -406,-25 -601,-76 -194,-51 -351,-119 -472,-204l236 -531c114,75 246,136 397,182 150,46 298,69 443,69 277,0 415,-69 415,-208 0,-72 -39,-126 -118,-161 -79,-36 -206,-73 -380,-111 -192,-42 -352,-86 -480,-133 -129,-48 -239,-123 -332,-228 -92,-104 -138,-245 -138,-422 0,-155 43,-295 128,-420 84,-125 211,-224 380,-296 168,-73 375,-109 620,-109 167,0 332,18 495,56 162,38 305,93 429,166l-222 534c-242,-131 -478,-196 -706,-196 -143,0 -247,21 -313,64 -65,42 -98,97 -98,165 0,68 39,119 117,153 77,34 202,69 374,105 194,42 355,86 482,133 128,47 238,123 331,226 94,103 141,243 141,420 0,153 -43,291 -128,415 -85,123 -212,222 -382,296 -170,74 -376,111 -618,111zm-11352 1548l0 162 -784 0 0 -1045 763 0 0 163 -569 0 0 272 505 0 0 160 -505 0 0 288 590 0zm1557 -883l0 1045 -160 0 -576 -707 0 707 -193 0 0 -1045 160 0 576 708 0 -708 193 0zm905 165l-347 0 0 -165 887 0 0 165 -346 0 0 880 -194 0 0 -880zm1882 718l0 162 -784 0 0 -1045 763 0 0 163 -569 0 0 272 505 0 0 160 -505 0 0 288 590 0zm1312 162l-213 -306c-9,1 -23,2 -41,2l-236 0 0 304 -194 0 0 -1045 430 0c91,0 170,15 237,45 67,30 119,73 154,129 36,55 54,122 54,198 0,79 -19,146 -57,203 -39,57 -94,99 -165,127l240 343 -209 0zm-4 -673c0,-67 -22,-118 -66,-154 -44,-35 -108,-53 -193,-53l-227 0 0 416 227 0c85,0 149,-18 193,-54 44,-37 66,-88 66,-155zm1253 -372c91,0 170,15 237,45 67,30 119,73 155,129 35,55 53,122 53,198 0,76 -18,142 -53,198 -36,56 -88,99 -155,129 -67,30 -146,45 -237,45l-235 0 0 301 -194 0 0 -1045 429 0zm-8 580c84,0 148,-18 192,-54 44,-36 66,-87 66,-154 0,-67 -22,-118 -66,-154 -44,-35 -108,-53 -192,-53l-227 0 0 415 227 0zm1743 465l-213 -306c-9,1 -23,2 -41,2l-236 0 0 304 -194 0 0 -1045 430 0c91,0 170,15 237,45 67,30 119,73 154,129 36,55 54,122 54,198 0,79 -19,146 -57,203 -39,57 -94,99 -165,127l240 343 -209 0zm-4 -673c0,-67 -22,-118 -66,-154 -44,-35 -108,-53 -193,-53l-227 0 0 416 227 0c85,0 149,-18 193,-54 44,-37 66,-88 66,-155zm824 -372l194 0 0 1045 -194 0 0 -1045zm1212 1060c-81,0 -159,-11 -234,-34 -75,-23 -135,-53 -178,-91l67 -151c43,34 95,62 157,83 63,21 125,32 188,32 77,0 135,-12 174,-37 38,-25 57,-58 57,-99 0,-30 -11,-54 -32,-74 -21,-19 -49,-34 -81,-45 -33,-11 -78,-24 -135,-38 -79,-18 -144,-37 -193,-56 -49,-19 -92,-49 -127,-89 -35,-40 -53,-95 -53,-164 0,-57 16,-110 47,-157 31,-47 79,-85 142,-113 63,-28 140,-42 232,-42 64,0 126,8 188,24 62,16 115,39 160,69l-61 151c-46,-27 -94,-47 -144,-61 -49,-14 -98,-21 -144,-21 -77,0 -134,13 -171,39 -38,25 -56,60 -56,103 0,29 10,54 32,73 21,19 48,34 81,44 33,11 78,24 134,38 78,18 142,36 191,56 50,19 93,49 128,89 35,39 53,93 53,161 0,58 -16,110 -47,157 -31,46 -79,84 -142,111 -64,28 -142,42 -233,42zm1810 -177l0 162 -783 0 0 -1045 762 0 0 163 -568 0 0 272 504 0 0 160 -504 0 0 288 589 0zm-10486 1200c26,9 45,24 60,44 14,21 21,46 21,76 0,60 -24,107 -71,138 -48,32 -111,47 -191,47l-297 0 119 -591 272 0c62,0 109,12 143,34 33,23 50,56 50,99 0,36 -10,68 -29,94 -19,26 -44,46 -77,59zm-267 -200l-33 163 156 0c42,0 75,-8 99,-25 24,-16 36,-41 36,-73 0,-43 -34,-65 -102,-65l-156 0zm93 419c47,0 82,-8 107,-25 25,-17 38,-42 38,-74 0,-26 -9,-44 -27,-55 -17,-11 -44,-16 -80,-16l-181 0 -34 170 177 0zm891 -365l-90 451 -101 0 10 -49c-40,37 -91,55 -153,55 -49,0 -89,-13 -118,-40 -30,-27 -45,-64 -45,-113 0,-18 2,-36 6,-54l50 -250 106 0 -50 248c-2,11 -3,23 -3,35 0,26 7,46 22,60 15,14 37,21 67,21 38,0 70,-10 95,-32 26,-22 43,-54 51,-98l47 -234 106 0zm173 0l105 0 -89 451 -106 0 90 -451zm77 -74c-19,0 -34,-6 -46,-17 -12,-12 -18,-26 -18,-42 0,-19 7,-35 20,-48 13,-13 31,-20 52,-20 19,0 34,6 46,17 11,11 17,24 17,40 0,21 -6,38 -19,51 -14,13 -31,19 -52,19zm237 -101l106 0 -125 626 -106 0 125 -626zm325 475c-1,9 -2,16 -2,20 0,33 18,50 53,50 22,0 42,-6 60,-17l18 77c-29,18 -65,27 -109,27 -39,0 -70,-10 -94,-32 -23,-21 -35,-51 -35,-88 0,-13 1,-25 3,-36l43 -213 -73 0 17 -84 73 0 21 -103 105 0 -21 103 122 0 -17 84 -122 0 -42 212zm1288 -300l-252 451 -103 0 -61 -310 -177 310 -102 0 -83 -451 97 0 57 332 188 -332 91 0 60 332 186 -332 99 0zm104 0l106 0 -90 451 -105 0 89 -451zm77 -74c-18,0 -34,-6 -45,-17 -12,-12 -18,-26 -18,-42 0,-19 7,-35 20,-48 13,-13 30,-20 52,-20 18,0 34,6 45,17 12,11 18,24 18,40 0,21 -7,38 -20,51 -13,13 -30,19 -52,19zm262 374c-1,9 -2,16 -2,20 0,33 18,50 53,50 22,0 42,-6 59,-17l19 77c-29,18 -65,27 -109,27 -39,0 -70,-10 -94,-32 -23,-21 -35,-51 -35,-88 0,-13 1,-25 3,-36l43 -213 -73 0 17 -84 73 0 20 -103 106 0 -21 103 121 0 -16 84 -122 0 -42 212zm579 -305c51,0 91,14 121,40 29,26 44,64 44,113 0,14 -2,31 -6,53l-50 250 -105 0 49 -247c2,-11 3,-23 3,-35 0,-54 -30,-82 -90,-82 -39,0 -71,11 -96,33 -26,22 -43,54 -52,97l-47 234 -106 0 125 -626 106 0 -44 220c39,-33 88,-50 148,-50zm727 465c-46,0 -89,-7 -131,-20 -42,-13 -74,-29 -98,-49l47 -87c24,20 54,36 88,47 34,12 69,18 104,18 43,0 78,-8 104,-23 25,-15 38,-35 38,-61 0,-15 -5,-27 -16,-37 -10,-10 -23,-18 -38,-24 -16,-6 -37,-13 -65,-21 -38,-11 -69,-22 -93,-32 -24,-11 -44,-26 -61,-47 -17,-21 -25,-48 -25,-81 0,-39 11,-72 32,-101 22,-29 52,-51 91,-67 39,-15 84,-23 134,-23 39,0 75,4 109,13 35,9 64,21 89,37l-43 87c-22,-15 -47,-26 -74,-34 -28,-8 -57,-12 -86,-12 -44,0 -79,8 -105,24 -25,16 -38,37 -38,64 0,15 5,28 16,38 11,10 24,18 39,24 15,6 37,13 66,22 38,11 68,21 92,32 23,10 43,25 60,44 17,20 25,46 25,77 0,39 -11,73 -33,101 -21,29 -52,51 -92,67 -39,16 -85,24 -136,24zm835 -267c0,22 -2,43 -7,64l-358 0c2,74 45,111 130,111 26,0 50,-4 73,-12 22,-9 41,-20 57,-35l44 74c-23,21 -51,36 -83,47 -33,10 -66,15 -102,15 -45,0 -84,-8 -118,-24 -33,-16 -59,-40 -77,-70 -18,-30 -27,-65 -27,-104 0,-50 11,-95 33,-136 23,-40 53,-71 93,-94 40,-22 84,-34 134,-34 63,0 113,18 151,53 38,35 57,84 57,145zm-213 -113c-36,0 -66,9 -91,29 -25,19 -42,45 -52,78l259 0c0,-34 -10,-60 -31,-79 -21,-19 -50,-28 -85,-28zm524 377c-44,0 -83,-8 -117,-25 -34,-16 -59,-39 -77,-69 -18,-30 -27,-65 -27,-104 0,-50 11,-95 34,-135 23,-40 55,-72 96,-94 41,-23 88,-35 140,-35 46,0 85,9 118,27 33,18 58,44 76,79l-90 46c-21,-41 -58,-62 -112,-62 -30,0 -57,7 -80,21 -24,15 -42,35 -56,60 -13,26 -20,55 -20,88 0,35 11,63 31,83 21,20 51,30 89,30 26,0 49,-5 70,-16 21,-10 39,-26 53,-47l78 53c-21,31 -49,56 -86,74 -37,17 -77,26 -120,26zm827 -457l-90 451 -101 0 10 -49c-40,37 -91,55 -152,55 -50,0 -89,-13 -119,-40 -30,-27 -44,-64 -44,-113 0,-18 2,-36 6,-54l49 -250 106 0 -50 248c-2,11 -3,23 -3,35 0,26 7,46 22,60 15,14 37,21 67,21 39,0 70,-10 96,-32 25,-22 42,-54 50,-98l48 -234 105 0zm262 59c19,-23 43,-40 72,-49 28,-10 62,-15 102,-15l-20 101c-9,-2 -18,-3 -26,-3 -86,0 -138,46 -156,136l-45 222 -106 0 90 -451 100 0 -11 59zm296 -59l106 0 -90 451 -105 0 89 -451zm77 -74c-18,0 -34,-6 -45,-17 -12,-12 -18,-26 -18,-42 0,-19 7,-35 20,-48 13,-13 30,-20 52,-20 18,0 33,6 45,17 12,11 18,24 18,40 0,21 -7,38 -20,51 -13,13 -30,19 -52,19zm262 374c-2,9 -2,16 -2,20 0,33 18,50 53,50 22,0 42,-6 59,-17l19 77c-29,18 -65,27 -109,27 -39,0 -70,-10 -94,-32 -24,-21 -35,-51 -35,-88 0,-13 1,-25 3,-36l43 -213 -73 0 17 -84 73 0 20 -103 106 0 -21 103 121 0 -17 84 -121 0 -42 212zm748 -300l-311 491c-30,49 -60,83 -88,102 -28,19 -62,28 -102,28 -22,0 -44,-3 -66,-11 -22,-7 -39,-17 -52,-29l53 -76c20,19 45,28 74,28 18,0 34,-4 47,-14 14,-9 28,-25 42,-47l14 -22 -106 -450 105 0 76 335 209 -335 105 0zm-15446 -6229c919,0 1664,745 1664,1664 0,675 -402,1256 -979,1517l0 3274 -685 395 -686 -395 0 -3274c-577,-261 -979,-842 -979,-1517 0,-919 745,-1664 1665,-1664zm0 534c231,0 418,187 418,418 0,231 -187,419 -418,419 -232,0 -419,-188 -419,-419 0,-231 187,-418 419,-418z"/>
 </g>
</svg>
