<?xml version="1.0" encoding="UTF-8"?>
<!DOCTYPE svg PUBLIC "-//W3C//DTD SVG 1.1//EN" "http://www.w3.org/Graphics/SVG/1.1/DTD/svg11.dtd">
<!-- Creator: CorelDRAW X7 -->
<svg xmlns="http://www.w3.org/2000/svg" xml:space="preserve" width="254mm" height="254mm" version="1.1" style="shape-rendering:geometricPrecision; text-rendering:geometricPrecision; image-rendering:optimizeQuality; fill-rule:evenodd; clip-rule:evenodd"
viewBox="0 0 25400 25400"
 xmlns:xlink="http://www.w3.org/1999/xlink">
 <defs>
  <style type="text/css">
   <![CDATA[
    .fil0 {fill:none}
    .fil1 {fill:black}
   ]]>
  </style>
 </defs>
 <g id="Layer_x0020_1">
  <metadata id="CorelCorpID_0Corel-Layer"/>
  <rect class="fil0" width="25400" height="25400"/>
  <path class="fil1" d="M9235 21315c-3959,-3100 -6241,-7748 -6252,-14493 1637,-991 3307,-1725 4993,-2202 -950,1096 -1525,2526 -1525,4090 0,2115 1065,4056 2784,5201l0 7404zm8189 -16695c1686,477 3356,1211 4993,2202 -11,6745 -2293,11393 -6252,14493l0 -7404c1719,-1145 2784,-3086 2784,-5201 0,-1564 -575,-2994 -1525,-4090zm-4724 -641c2613,0 4731,2118 4731,4731 0,1919 -1142,3571 -2783,4313l0 9305 -1948 1125 -1948 -1125 0 -9305c-1641,-742 -2783,-2394 -2783,-4313 0,-2613 2118,-4731 4731,-4731zm0 1517c657,0 1190,533 1190,1190 0,657 -533,1190 -1190,1190 -657,0 -1190,-533 -1190,-1190 0,-657 533,-1190 1190,-1190z"/>
 </g>
</svg>
